<!-- Generator: Adobe Illustrator 23.1.1, SVG Export Plug-In  -->
<svg version="1.1" xmlns="http://www.w3.org/2000/svg" xmlns:xlink="http://www.w3.org/1999/xlink" x="0px" y="0px" width="30px"
	 height="32.9px" viewBox="0 0 30 32.9" style="enable-background:new 0 0 30 32.9;" xml:space="preserve">
<style type="text/css">
	.st0{fill:#00A644;}
</style>
<defs>
</defs>
<g>
	<path class="st0" d="M13.5,2.7c0.7,2-0.5,4.2-2.5,4.9C9,8.2,6.8,7.1,6.1,5.1C5.5,3,6.6,0.9,8.6,0.2C10.7-0.5,12.8,0.6,13.5,2.7z"/>
	<g>
		<path class="st0" d="M16.5,12.1l5.3,12.6l6-1.3c0.9-0.3,1.8,0.2,2.1,1c0.3,0.9-0.2,1.8-1,2.1L22,29.7c0,0,0,0,0,0
			c-1.2,0.4-2.4,0.4-3.1-0.6L15,24.3L4.6,32.2C4,33,2.8,33.1,2,32.4c-0.8-0.7-0.9-1.8-0.2-2.6l9.8-10.4l-2.7-4.7l-6.6,3.5
			c-0.6,0.5-1.5,0.3-2-0.3c-0.5-0.6-0.3-1.5,0.3-2l7.6-5.8C11.6,7.7,15,8.6,16.5,12.1z"/>
		<path class="st0" d="M26,18.2c0.1,0.3,0,0.6-0.3,0.8l-3.3,1.5c-0.3,0.1-0.6,0-0.8-0.3l-3.9-8.8c-0.1-0.3,0-0.6,0.3-0.8l3.3-1.5
			c0.3-0.1,0.6,0,0.8,0.3L26,18.2z"/>
	</g>
</g>
</svg>
