<!-- Generator: Adobe Illustrator 23.0.6, SVG Export Plug-In  -->
<svg version="1.1" xmlns="http://www.w3.org/2000/svg" xmlns:xlink="http://www.w3.org/1999/xlink" x="0px" y="0px" width="28.7px"
	 height="43.4px" viewBox="0 0 28.7 43.4" style="enable-background:new 0 0 28.7 43.4;" xml:space="preserve">
<style type="text/css">
	.st0{fill:#FFFFFF;}
</style>
<defs>
</defs>
<g>
	<path d="M3.3,17.4c-0.8,0-1.5,0.1-2.2,0c-0.4-0.1-0.9-0.3-1-0.6c-0.1-0.2,0.2-0.8,0.4-1c0.6-0.5,1.3-0.9,2-1.2
		c0.7-0.3,0.9-0.7,0.9-1.5C3.6,9.6,4.1,6.2,5.1,2.8c0.4-1.3,1.1-1.9,2.4-2.1c4.4-0.9,8.9-0.9,13.4-0.2c1.3,0.2,2.1,0.9,2.5,2.1
		c1.1,3.3,1.6,6.7,1.9,10.2c0.1,0.7,0.3,1.1,0.9,1.4c0.7,0.3,1.4,0.7,2,1.1c0.3,0.2,0.6,0.8,0.5,1.1c-0.1,0.3-0.6,0.5-1,0.6
		c-0.7,0.1-1.3,0-2.2,0.1c0,0.4,0,0.8,0,1.2c0.1,6.4,0.2,12.8,0.2,19.2c0,3.4-2.1,5.7-5.5,5.7c-3.7,0-7.4,0.1-11,0.1
		c-3.3,0-5.6-2.2-5.6-5.5c-0.1-6.4-0.1-12.8-0.2-19.1C3.3,18.3,3.3,17.9,3.3,17.4z M14.4,19.7c1.5,0,3.1-0.1,4.6,0
		c0.6,0,1-0.2,1.2-0.8c0.6-1.2,1.2-2.4,1.9-3.6c0.4-0.6,0.3-1-0.4-1.3c-1.7-0.9-3.6-1.4-5.5-1.6c-3.3-0.3-6.6,0.1-9.6,1.8
		c-0.5,0.3-0.7,0.5-0.3,1.1c0.8,1.3,1.4,2.6,2.2,3.9c0.2,0.3,0.7,0.5,1,0.5C11.2,19.8,12.8,19.8,14.4,19.7z M7.3,38.1
		c5,0.9,9.6,0.9,14.5-0.2c-0.9-1.1-1.7-2-2.5-2.8c-0.2-0.2-0.7-0.3-1-0.3c-2.5,0-5,0-7.6,0.1c-0.3,0-0.8,0.1-1,0.3
		C9,36.1,8.3,37,7.3,38.1z M7.9,26.3c0.4-2.8,0.1-5.3-2-7.6C6,21.4,6,23.8,6,26.4C6.7,26.4,7.3,26.3,7.9,26.3z M22.9,26.2
		c0-2.6-0.1-5-0.1-7.7c-1.9,2.3-2.3,4.8-1.8,7.5C21.6,26.1,22.2,26.2,22.9,26.2z M6.1,28.4c0,2.3,0.1,4.5,0.1,7
		c0.8-0.9,1.7-1.5,1.8-2.2c0.2-1.6,0-3.3,0-5C7.3,28.3,6.7,28.3,6.1,28.4z M20.9,28.1c0,1.4,0.1,2.6,0,3.9c-0.1,1.6,1,2.1,2.1,3.1
		c0-2.4-0.1-4.6-0.1-6.9C22.3,28.2,21.7,28.1,20.9,28.1z"/>
	<path class="st0" d="M14.4,19.7c-1.6,0-3.2,0.1-4.7,0c-0.4,0-0.9-0.3-1-0.5c-0.8-1.3-1.4-2.6-2.2-3.9c-0.3-0.6-0.2-0.8,0.3-1.1
		c3-1.7,6.2-2.1,9.6-1.8c1.9,0.2,3.8,0.7,5.5,1.6c0.7,0.4,0.7,0.7,0.4,1.3c-0.7,1.2-1.3,2.4-1.9,3.6c-0.3,0.6-0.6,0.8-1.2,0.8
		C17.5,19.7,15.9,19.7,14.4,19.7z"/>
	<path class="st0" d="M7.3,38.1c0.9-1.1,1.7-2,2.5-2.9c0.2-0.2,0.6-0.3,1-0.3c2.5-0.1,5-0.1,7.6-0.1c0.3,0,0.8,0.1,1,0.3
		c0.8,0.8,1.6,1.7,2.5,2.8C17,39,12.3,39,7.3,38.1z"/>
	<path class="st0" d="M7.9,26.3c-0.6,0.1-1.2,0.1-1.9,0.1c0-2.6-0.1-5-0.1-7.7C8,21,8.3,23.5,7.9,26.3z"/>
	<path class="st0" d="M22.9,26.2c-0.7-0.1-1.3-0.1-1.8-0.1c-0.5-2.7-0.1-5.2,1.8-7.5C22.8,21.2,22.8,23.6,22.9,26.2z"/>
	<path class="st0" d="M6.1,28.4c0.6,0,1.2-0.1,2-0.2c0,1.7,0.2,3.4,0,5c-0.1,0.7-1.1,1.3-1.8,2.2C6.1,32.9,6.1,30.7,6.1,28.4z"/>
	<path class="st0" d="M20.9,28.1c0.8,0,1.4,0.1,2,0.1c0,2.3,0.1,4.4,0.1,6.9c-1-1-2.2-1.5-2.1-3.1C21,30.7,20.9,29.5,20.9,28.1z"/>
</g>
</svg>
