<!-- Generator: Adobe Illustrator 23.0.6, SVG Export Plug-In  -->
<svg version="1.1" xmlns="http://www.w3.org/2000/svg" xmlns:xlink="http://www.w3.org/1999/xlink" x="0px" y="0px" width="54.5px"
	 height="22.3px" viewBox="0 0 54.5 22.3" style="enable-background:new 0 0 54.5 22.3;" xml:space="preserve">
<style type="text/css">
	.st0{fill:#FFFFFF;}
</style>
<defs>
</defs>
<g>
	<path d="M26.3,22.1c-7.4,0-14.8-0.1-22.2-0.1C1.7,22,0,20.2,0,17.9c0-4.6,0.1-9.2,0.1-13.8C0.1,1.7,1.9,0,4.3,0
		C14.6,0.1,25,0.1,35.4,0.2c4.2,0,8.4,0.1,12.6,0.1c3-0.1,4.2,1.4,5.3,3.9c1.3,3,1.3,6.1,1.1,9.2c-0.1,2-0.5,4.1-1.5,5.9
		c-0.6,1.1-1.3,2.2-2.5,2.7c-0.6,0.2-1.2,0.4-1.8,0.4C41.1,22.2,33.7,22.2,26.3,22.1z M17,11.2c0-1.8,0-3.7,0-5.5
		c0-0.8-0.4-1.6-1-1.7c-1.6-0.4-3.1-0.8-4.7-1.2c-1.1-0.3-1.7,0-2.3,0.9c-1.3,1.8-1.7,3.9-1.8,6c-0.1,1.7,0,3.4,0.3,5.1
		c0.2,1.5,0.6,3,1.7,4.2c0.5,0.5,1.1,0.9,1.8,0.7c1.6-0.4,3.1-0.8,4.7-1.2c0.8-0.2,1.2-0.8,1.2-1.7C17,14.8,17,13,17,11.2z
		 M38.1,11.1C38,10.1,38,9,37.8,7.9c-0.2-1.5-0.4-3.1-1.3-4.4c-0.5-0.8-0.8-1-1.7-0.7c-1.3,0.4-2.6,0.9-3.9,1.4
		C30.2,4.5,30,5.2,30.2,6c0.3,1.5,0.6,2.9,0.8,4.4c0.1,1,0,2-0.2,2.9c-0.1,1.1-0.3,2.1-0.6,3.1c-0.3,0.9-0.1,1.5,0.7,1.8
		c1.1,0.4,2.3,0.8,3.4,1.3c1.3,0.6,1.9,0.3,2.5-1C37.9,16.2,37.9,13.7,38.1,11.1z M33.6,20.7c0,0,0-0.1,0-0.1
		c-1.2-0.6-2.4-1.3-3.7-1.9c-0.6-0.3-1.3-0.4-2-0.5c-1.7-0.1-3.5,0-5.2,0c-0.2,0-0.4,0.1-0.5,0.2c-0.4,0.7-0.7,1.5-1.1,2.3
		C25.4,20.6,29.5,20.7,33.6,20.7z M33.8,2c0-0.1,0-0.2-0.1-0.3c-4.1,0-8.2,0-12.4-0.1c0.3,0.8,0.6,1.4,0.9,2
		c0.1,0.2,0.4,0.4,0.7,0.4c1.9,0,3.8,0,5.6,0c0.2,0,0.4,0,0.6-0.1C30.7,3.4,32.2,2.7,33.8,2z M37.2,20.3c0,0.1,0.1,0.1,0.1,0.2
		c0.2-0.2,0.5-0.3,0.6-0.5c0.2-0.5,0.5-1,0.6-1.5c0.1-0.5,0.5-0.7,1-0.8c1.5-0.2,3-0.4,4.6-0.6c2-0.3,3.9-0.6,5.8-0.8
		c0.7-0.1,1.4-0.2,2.2-0.4c0-0.1,0-0.2,0-0.2c-4.4,0.6-8.7,1.2-13.1,1.8c1-4.2,1-8.3,0.1-12.5c4.4,0.7,8.7,1.3,13.1,2
		c0-0.1,0-0.2,0-0.2c-0.5-0.1-0.9-0.2-1.4-0.3C48.8,6.3,47,6,45.1,5.7c-1.9-0.3-3.9-0.6-5.8-0.9c-0.2,0-0.4-0.2-0.5-0.4
		c-0.3-0.6-0.5-1.2-0.8-1.8c-0.1-0.2-0.4-0.3-0.6-0.5C40,6.6,40,15.9,37.2,20.3z M14.6,20.6c1.9,0,3.7,0,5.4,0
		c0.1,0,0.3-0.1,0.4-0.3c0.4-0.7,0.7-1.4,1-2.2C18.9,17.8,16.2,18.7,14.6,20.6z M14.7,1.7c2,1.8,4,2.9,6.7,2.3
		c-0.3-0.6-0.5-1.3-0.9-1.9c-0.1-0.2-0.4-0.4-0.6-0.4C18.3,1.7,16.6,1.7,14.7,1.7z M1.1,6.5c0,0.1,0.1,0.1,0.1,0.2
		c1.9-0.6,3.7-1.2,5.7-1.8c-1.2,4.2-1.2,8.3,0,12.4C4.9,16.6,3,16,1.2,15.4c0,0.1,0,0.1-0.1,0.2c0.1,0.1,0.2,0.1,0.3,0.2
		c1.6,0.5,3.2,1.1,4.7,1.6c0.6,0.2,1,0.4,1.2,1.1c0.2,0.7,0.5,0.8,0.9,0.7C5.5,13.7,5.6,8.3,8.3,2.9C7.8,2.8,7.8,2.8,7.6,3.3
		c-0.3,0.9-1,1.3-1.9,1.6C4.6,5.2,3.5,5.6,2.4,6C1.9,6.1,1.5,6.3,1.1,6.5z M51.8,15c0.1,0.1,0.2,0.1,0.3,0.2
		c0.2-0.3,0.5-0.5,0.6-0.9c0.2-0.7,0.4-1.5,0.4-2.2c0-1.3-0.2-2.6-0.4-3.9c0-0.2-0.4-0.4-0.6-0.6c-0.1,0.3-0.3,0.5-0.3,0.8
		c0,2,0,4,0,6C51.8,14.6,51.8,14.8,51.8,15z M51.9,5.9c0-1.6-0.8-2.6-2.1-3.4c-1.1-0.7-2.3-1.2-3.7-0.2C48.6,2.7,50.4,4.1,51.9,5.9z
		 M46,20.2c1,0.8,2.4,0.7,3.7-0.1c1.4-0.8,2.3-2.3,2-3.5C50.2,18.4,48.6,20,46,20.2z"/>
	<path class="st0" d="M17,11.2c0,1.8,0,3.6,0,5.4c0,0.9-0.4,1.5-1.2,1.7c-1.6,0.4-3.1,0.8-4.7,1.2c-0.8,0.2-1.3-0.1-1.8-0.7
		c-1.1-1.2-1.5-2.7-1.7-4.2C7.3,13,7.1,11.3,7.2,9.6c0.1-2.1,0.5-4.2,1.8-6c0.7-1,1.2-1.2,2.3-0.9C12.9,3.1,14.5,3.5,16,4
		c0.6,0.2,1,0.9,1,1.7C17,7.5,17,9.3,17,11.2z"/>
	<path class="st0" d="M38.1,11.1c-0.2,2.6-0.3,5.1-1.4,7.4c-0.7,1.3-1.3,1.6-2.5,1c-1.1-0.5-2.3-0.9-3.4-1.3
		c-0.8-0.3-0.9-0.9-0.7-1.8c0.3-1,0.5-2.1,0.6-3.1c0.1-1,0.3-2,0.2-2.9c-0.2-1.5-0.4-3-0.8-4.4c-0.2-0.8,0-1.5,0.7-1.7
		c1.3-0.5,2.6-0.9,3.9-1.4c0.9-0.3,1.2-0.1,1.7,0.7c0.8,1.4,1.1,2.9,1.3,4.4C38,9,38,10.1,38.1,11.1z"/>
	<path class="st0" d="M33.6,20.7c-4.1,0-8.2,0-12.4-0.1c0.4-0.8,0.7-1.6,1.1-2.3c0.1-0.1,0.3-0.2,0.5-0.2c1.7,0,3.5,0,5.2,0
		c0.7,0,1.4,0.2,2,0.5c1.2,0.6,2.4,1.3,3.7,1.9C33.7,20.6,33.6,20.6,33.6,20.7z"/>
	<path class="st0" d="M33.8,2c-1.5,0.7-3.1,1.3-4.6,2c-0.2,0.1-0.4,0.1-0.6,0.1c-1.9,0-3.8,0-5.6,0c-0.2,0-0.6-0.2-0.7-0.4
		c-0.3-0.6-0.6-1.3-0.9-2c4.2,0,8.3,0,12.4,0.1C33.7,1.9,33.7,2,33.8,2z"/>
	<path class="st0" d="M37.2,20.3C40,15.9,40,6.6,37.4,2.1c0.2,0.2,0.5,0.3,0.6,0.5c0.3,0.6,0.5,1.2,0.8,1.8c0.1,0.2,0.3,0.4,0.5,0.4
		c1.9,0.3,3.9,0.6,5.8,0.9C47,6,48.8,6.3,50.7,6.5c0.5,0.1,0.9,0.2,1.4,0.3c0,0.1,0,0.2,0,0.2C47.7,6.4,43.4,5.7,39,5
		c1,4.2,0.9,8.3-0.1,12.5c4.4-0.6,8.8-1.2,13.1-1.8c0,0.1,0,0.2,0,0.2c-0.7,0.1-1.4,0.3-2.2,0.4c-1.9,0.3-3.9,0.6-5.8,0.8
		c-1.5,0.2-3,0.4-4.6,0.6c-0.5,0.1-0.8,0.2-1,0.8c-0.1,0.5-0.4,1-0.6,1.5c-0.1,0.2-0.4,0.3-0.6,0.5C37.3,20.4,37.2,20.4,37.2,20.3z"
		/>
	<path class="st0" d="M14.6,20.6c1.6-1.9,4.3-2.8,6.8-2.4c-0.3,0.7-0.7,1.5-1,2.2c-0.1,0.1-0.2,0.3-0.4,0.3
		C18.3,20.6,16.5,20.6,14.6,20.6z"/>
	<path class="st0" d="M14.7,1.7c1.8,0,3.5,0,5.3,0c0.2,0,0.5,0.2,0.6,0.4c0.3,0.6,0.6,1.3,0.9,1.9C18.8,4.6,16.7,3.5,14.7,1.7z"/>
	<path class="st0" d="M1.1,6.5C1.5,6.3,1.9,6.1,2.4,6c1.1-0.4,2.2-0.7,3.3-1c0.9-0.2,1.6-0.6,1.9-1.6c0.2-0.5,0.2-0.5,0.7-0.4
		C5.6,8.3,5.5,13.7,8.2,19.1c-0.4,0-0.6-0.1-0.9-0.7c-0.2-0.6-0.6-0.9-1.2-1.1c-1.6-0.5-3.2-1.1-4.7-1.6c-0.1,0-0.2-0.1-0.3-0.2
		c0-0.1,0-0.1,0.1-0.2C3,16,4.9,16.6,6.8,17.3c-1.2-4.1-1.2-8.2,0-12.4C4.9,5.5,3.1,6.1,1.2,6.7C1.2,6.6,1.1,6.5,1.1,6.5z"/>
	<path class="st0" d="M51.8,15c0-0.2,0-0.4,0-0.6c0-2,0-4,0-6c0-0.3,0.2-0.5,0.3-0.8c0.2,0.2,0.6,0.4,0.6,0.6
		c0.2,1.3,0.3,2.6,0.4,3.9c0,0.7-0.2,1.5-0.4,2.2c-0.1,0.3-0.4,0.6-0.6,0.9C52,15.1,51.9,15.1,51.8,15z"/>
	<path class="st0" d="M51.9,5.9c-1.5-1.8-3.3-3.2-5.8-3.6c1.4-1,2.6-0.5,3.7,0.2C51,3.3,51.9,4.3,51.9,5.9z"/>
	<path class="st0" d="M46,20.2c2.6-0.2,4.2-1.8,5.7-3.6c0.2,1.1-0.7,2.7-2,3.5C48.5,21,47,21,46,20.2z"/>
</g>
</svg>
