<!-- Generator: Adobe Illustrator 23.1.1, SVG Export Plug-In  -->
<svg version="1.1" xmlns="http://www.w3.org/2000/svg" xmlns:xlink="http://www.w3.org/1999/xlink" x="0px" y="0px" width="22.6px"
	 height="37.2px" viewBox="0 0 22.6 37.2" style="enable-background:new 0 0 22.6 37.2;" xml:space="preserve">
<style type="text/css">
	.st0{fill:#00A644;}
</style>
<defs>
</defs>
<g>
	<path class="st0" d="M0.8,14.4l8.6-4.3c2.2-0.9,6-1.5,6.6,2.6l1.6,22.5c0.1,0.9-0.5,1.8-1.4,2c-0.9,0.2-1.8-0.5-2-1.4l-2.3-9.4
		l-3.5,0.8l1,4.9c0.2,0.9-0.4,1.7-1.3,1.9c-0.9,0.2-1.6-0.4-1.9-1.3l-2.1-5.8c-0.3-0.9-0.1-1.9,0.6-2.3l5.9-3.3l-1.4-5.9l-7.3,1.6
		c-0.9,0.3-1.5,0-1.8-0.7C-0.2,15.5,0.1,14.7,0.8,14.4z"/>
	<path class="st0" d="M8.1,4.8c0.4,2.2,2.5,3.6,4.7,3.1c2.2-0.4,3.6-2.5,3.1-4.7c-0.4-2.2-2.5-3.6-4.7-3.1C9.1,0.5,7.7,2.6,8.1,4.8z
		"/>
	<path class="st0" d="M22.6,22.2c0,0.3-0.2,0.6-0.5,0.6L18.5,23c-0.3,0-0.6-0.2-0.6-0.5l-0.5-9.6c0-0.3,0.2-0.6,0.5-0.6l3.6-0.2
		c0.3,0,0.6,0.2,0.6,0.5L22.6,22.2z"/>
</g>
</svg>
