<!-- Generator: Adobe Illustrator 23.1.1, SVG Export Plug-In  -->
<svg version="1.1" xmlns="http://www.w3.org/2000/svg" xmlns:xlink="http://www.w3.org/1999/xlink" x="0px" y="0px" width="23.4px"
	 height="37.6px" viewBox="0 0 23.4 37.6" style="enable-background:new 0 0 23.4 37.6;" xml:space="preserve">
<style type="text/css">
	.st0{fill:#00A644;}
</style>
<defs>
</defs>
<g>
	<g>
		<g>
			<g>
				<circle class="st0" cx="8.9" cy="3.6" r="3.6"/>
				<path class="st0" d="M14.2,11.6l7.6,23.7c0.3,0.9-0.2,1.9-1.1,2.2c-0.9,0.3-1.9-0.2-2.2-1.1l-5-10.3l-3,4.1l-1.3,5.7
					c-0.2,0.9-1,1.6-2,1.4c-0.9-0.2-1.6-1-1.4-2L6.4,29c0-0.4,0.1-0.8,0.4-1.2l2.7-5.7l-1.7-4.5l-0.9,1.2c0,0,0,0,0,0
					c-0.2,0.5-0.5,0.6-1,0.8l-4.1,1.2c-0.7,0.3-1.5,0-1.7-0.7c-0.3-0.7,0-1.5,0.7-1.7l3.4-1.6c0,0,3.1-5.8,3.3-6.1
					C8.6,8.7,13,7.9,14.2,11.6z"/>
			</g>
		</g>
	</g>
	<path class="st0" d="M23.4,20.2c0.1,0.3-0.1,0.6-0.4,0.7l-3.4,1.1c-0.3,0.1-0.6-0.1-0.7-0.4L16,12.5c-0.1-0.3,0.1-0.6,0.4-0.7
		l3.4-1.1c0.3-0.1,0.6,0.1,0.7,0.4L23.4,20.2z"/>
</g>
</svg>
