<!-- Generator: Adobe Illustrator 23.0.6, SVG Export Plug-In  -->
<svg version="1.1" xmlns="http://www.w3.org/2000/svg" xmlns:xlink="http://www.w3.org/1999/xlink" x="0px" y="0px" width="26.1px"
	 height="43.4px" viewBox="0 0 26.1 43.4" style="enable-background:new 0 0 26.1 43.4;" xml:space="preserve">
<style type="text/css">
	.st0{fill:#FFFFFF;}
</style>
<defs>
</defs>
<g>
	<path d="M1.9,16.4c-0.8,0-0.4,0.9-1,0.8c-0.3-0.1-0.8-0.3-0.9-0.6c-0.1-0.2,0.4-1,0.4-1l0.7-1.1c0,0,0.9-0.7,1-1.4
		C2.4,9.5,2.9,6.1,3.9,2.7c0.4-1.3,1.2-1.9,2.4-2.1c4.5-0.8,8.9-0.8,13.4,0c1.3,0.2,2.1,0.9,2.5,2.2c1,3.3,1.5,6.8,1.8,10.2
		c0.1,0.7,0.9,1.4,0.9,1.4l0.8,1.1c0,0,0.5,0.8,0.4,1.1c-0.1,0.3-0.6,0.5-0.9,0.6c-0.6,0.1-0.1-0.8-1-0.8c0,0.4,0,1.7,0,2.1
		c0,6.4,0,12.8,0,19.2c0,3.4-2.2,5.7-5.6,5.7c-3.7,0-7.4,0-11,0c-3.3,0-5.6-2.2-5.6-5.6c0-6.4,0-12.8,0-19.1
		C1.9,18.2,1.9,16.9,1.9,16.4z M13,19.3c1.5,0,3.1,0.4,4.6,0.4c0.6,0,1-0.2,1.3-0.8c0.6-1.2,1.3-2.4,1.9-3.5c0.4-0.6,0.3-1-0.4-1.3
		c-1.7-0.9-3.5-1.5-5.5-1.6c-3.3-0.3-6.6,0-9.6,1.7c-0.5,0.3-0.7,0.5-0.4,1.1c0.7,1.3,1.4,2.6,2.1,3.9c0.2,0.3,0.7,0.5,1,0.6
		C9.9,19.8,11.5,19.3,13,19.3z M5.7,38c4.9,1,9.6,1,14.5,0c-0.9-1.1-1.7-2-2.5-2.8c-0.2-0.2-0.7-0.3-1-0.3c-2.5,0-5,0-7.6,0
		c-0.3,0-0.8,0.1-1,0.3C7.4,36,6.7,36.9,5.7,38z M6.5,26.2c0.4-2.8,0.1-5.3-1.9-7.6c0,2.7,0,5.1,0,7.7C5.2,26.3,5.8,26.2,6.5,26.2z
		 M21.4,26.3c0-2.6,0-5,0-7.7c-1.9,2.3-2.3,4.8-1.9,7.5C20.2,26.2,20.8,26.3,21.4,26.3z"/>
	<path class="st0" d="M13,19.3c-1.6,0-3.2,0.4-4.7,0.4c-0.4,0-0.9-0.3-1-0.6c-0.8-1.3-1.4-2.6-2.1-3.9c-0.3-0.6-0.1-0.8,0.4-1.1
		c3-1.7,6.2-2,9.6-1.7c1.9,0.2,3.8,0.7,5.5,1.6c0.7,0.4,0.7,0.7,0.4,1.3c-0.7,1.2-1.3,2.3-1.9,3.5c-0.3,0.6-0.6,0.8-1.3,0.8
		C16.1,19.7,14.6,19.3,13,19.3z"/>
	<path class="st0" d="M5.7,38c0.9-1.1,1.7-2,2.5-2.9c0.2-0.2,0.6-0.3,1-0.3c2.5,0,5,0,7.6,0c0.3,0,0.8,0.1,1,0.3
		c0.8,0.8,1.6,1.8,2.5,2.8C15.4,39,10.7,39,5.7,38z"/>
	<path class="st0" d="M6.5,26.2c-0.6,0-1.2,0.1-1.9,0.1c0-2.6,0-5,0-7.7C6.6,20.9,6.9,23.4,6.5,26.2z"/>
	<path class="st0" d="M21.4,26.3c-0.7-0.1-1.3-0.1-1.8-0.2c-0.5-2.7-0.1-5.2,1.9-7.5C21.4,21.3,21.4,23.7,21.4,26.3z"/>
	<path class="st0" d="M6.5,27.1c-0.6,0-1.2-0.1-1.9-0.1c0,2.6,0,5,0,7.7C6.6,32.4,6.9,29.9,6.5,27.1z"/>
	<path class="st0" d="M21.4,26.9c-0.7,0.1-1.3,0.1-1.8,0.2c-0.5,2.7-0.1,5.2,1.9,7.5C21.4,32,21.4,29.5,21.4,26.9z"/>
</g>
<path class="st0" d="M7.5,1.2L4,5.5c0,0,0.1-2.6,1.1-3.5S7.5,1.2,7.5,1.2z"/>
<path class="st0" d="M18.6,1.2l3.5,4.3c0,0-0.1-2.6-1.1-3.5C20.1,1.2,18.6,1.2,18.6,1.2z"/>
</svg>
