<!-- Generator: Adobe Illustrator 23.0.6, SVG Export Plug-In  -->
<svg version="1.1" xmlns="http://www.w3.org/2000/svg" xmlns:xlink="http://www.w3.org/1999/xlink" x="0px" y="0px" width="23.3px"
	 height="42.6px" viewBox="0 0 23.3 42.6" style="enable-background:new 0 0 23.3 42.6;" xml:space="preserve">
<style type="text/css">
	.st0{fill:#FFFFFF;}
</style>
<defs>
</defs>
<path d="M14.4,42.6H8.9c-4.9,0-8.9-4-8.9-8.9V10.3V7.6C0,2.7,4,0,8.9,0h5.5c4.9,0,8.9,2.7,8.9,7.6v2.7v23.4
	C23.3,38.6,19.3,42.6,14.4,42.6z"/>
<path class="st0" d="M11.7,32.2c1.8,0,3.6,0,5.4,0c0.9,0,1.5-2.3,1.7-1.6c0.4,1.6,0.8,3.1,1.3,4.7c0.2,0.8-0.1,1.3-0.6,1.8
	c-1.2,1.1-2.6,1.6-4.2,1.8c-1.7,0.2-3.4,0.4-5.1,0.3c-2.1-0.1-4.2-0.5-6-1.7c-1-0.7-1.2-1.2-0.9-2.3c0.4-1.6,0.8-3.1,1.2-4.7
	c0.1-0.6,0.9,1.8,1.7,1.8C8,32.2,9.9,32.2,11.7,32.2z M8.3,12.7c-1.5,0.2-3.1,0.5-4.4,1.3c-0.8,0.5-1,0.8-0.7,1.7
	c0.5,1.3,0.9,2.6,1.4,3.9c0.3,0.7,0.9,0.9,1.8,0.7c1.5-0.3,2.9-0.6,4.4-0.8c1-0.1,2,0,2.9,0.1c1.1,0.1,2.1,0.3,3.1,0.6
	c0.9,0.3,1.5,0.1,1.8-0.7c0.4-1.1,0.8-2.3,1.3-3.4c0.6-1.3,0.3-1.9-1.1-2.5c-2.3-1.1-4.8-1.1-7.4-1.3C10.5,12.5,9.4,12.6,8.3,12.7z
	 M20.9,16.7c-0.6,1.2-1.3,2.4-1.9,3.7c-0.3,0.6-0.4,1.4-0.5,2c-0.1,1.7,0,3.5,0,5.2c0,0.2,0.1,0.4,0.2,0.5c0.7,0.4,1.5,0.7,2.3,1.1
	c0-4.2,0-8.3,0-12.4C21,16.8,21,16.8,20.9,16.7z M2.2,16.9c0,4.1,0,8.2,0,12.4c0.8-0.3,1.4-0.6,2-0.9c0.2-0.1,0.4-0.4,0.4-0.7
	c0-1.9,0-3.8,0-5.6c0-0.2,0-0.4-0.1-0.6c-0.7-1.5-1.4-3.1-2-4.6C2.4,16.8,2.3,16.8,2.2,16.9z"/>
</svg>
