<!-- Generator: Adobe Illustrator 23.0.6, SVG Export Plug-In  -->
<svg version="1.1" xmlns="http://www.w3.org/2000/svg" xmlns:xlink="http://www.w3.org/1999/xlink" x="0px" y="0px" width="683.5px"
	 height="535.5px" viewBox="0 0 683.5 535.5" style="enable-background:new 0 0 683.5 535.5;" xml:space="preserve">
<style type="text/css">
	.st0{fill:#C8C9CA;}
	.st1{fill:#FFFFFF;}
	.st2{fill:none;}
	.st3{fill:none;stroke:#FFFFFF;stroke-width:3;}
	.st4{fill:#39B44A;}
</style>
<defs>
</defs>
<g>
	<path class="st0" d="M463.1,228.9c-11.2-34.8-37.1-63.2-70.3-77.8l0,0c-7.8-3.1-12.7-11-12.7-18.8l0-132.3l-77.8,0l0,133.1
		c-0.2,7.6-5,15.4-12.7,18.4l0,0c-30,13.5-53.8,38.1-66.2,68.6c-3.8,5.3-10.2,8.6-16.5,8.6v0.1l-175.5,0l0,77.8l178.4,0
		c5.3,0.9,10.3,4.1,13.5,8.7c12.8,31.9,38.2,57.5,70,70.6c5.2,3.5,8.5,9.5,8.9,15.5l0,134.1l77.8,0l0-132.4h0c0-6.4,3.4-13,9-16.8
		c31-12.5,56.1-36.8,69.5-67.3l0,0c2.6-6.6,8.7-11.1,15.2-12.3l175.8,0l0-77.8L463.1,228.9z"/>
	<g>
		<rect x="524.8" y="267.3" class="st1" width="53.9" height="1"/>
		<path class="st1" d="M683.5,268.3l-10,0v-1l10,0V268.3z M663.5,268.3l-10,0v-1l10,0V268.3z M643.5,268.3h-10v-1h10V268.3z
			 M623.5,268.3l-10,0v-1l10,0V268.3z M603.5,268.3l-10,0v-1l10,0V268.3z"/>
		<rect x="104.8" y="267.6" class="st1" width="53.9" height="1"/>
		<path class="st1" d="M90,268.6l-10,0v-1l10,0V268.6z M70,268.6l-10,0v-1l10,0V268.6z M50,268.6H40v-1h10V268.6z M30,268.6l-10,0
			v-1l10,0V268.6z M10,268.6l-10,0v-1l10,0V268.6z"/>
		<rect x="340.7" y="32.7" class="st1" width="1" height="53.1"/>
		<polygon class="st1" points="341.7,18.8 340.7,18.8 340.7,8 341.7,8 		"/>
		<rect x="340.7" y="452.6" class="st1" width="1" height="53.1"/>
		<polygon class="st1" points="341.7,519.7 340.7,519.7 340.7,530.5 341.7,530.5 		"/>
		<path class="st1" d="M185.6,306.7h-18v-2.5h18V306.7z M185.6,301.6h-18V299h18V301.6z M185.6,296.4h-18v-2.6h18V296.4z
			 M185.6,291.2h-18v-2.6h18V291.2z M185.6,286h-18v-2.6h18V286z M185.6,280.8h-18v-2.6h18V280.8z M185.6,275.6h-18V273h18V275.6z
			 M185.6,270.4h-18v-2.6h18V270.4z M185.6,265.2h-18v-2.6h18V265.2z M185.6,260h-18v-2.6h18V260z M185.6,254.8h-18v-2.6h18V254.8z
			 M185.6,249.6h-18V247h18V249.6z M185.6,244.4h-18v-2.6h18V244.4z M185.6,239.2h-18v-2.6h18V239.2z M185.6,234h-18v-2.6h18V234z"
			/>
		<path class="st1" d="M377.2,111.8h-2.6v-18h2.6V111.8z M372,111.8h-2.6v-18h2.6V111.8z M366.8,111.8h-2.6v-18h2.6V111.8z
			 M361.6,111.8H359v-18h2.6V111.8z M356.4,111.8h-2.6v-18h2.6V111.8z M351.2,111.8h-2.6v-18h2.6V111.8z M346,111.8h-2.6v-18h2.6
			V111.8z M340.8,111.8h-2.6v-18h2.6V111.8z M335.6,111.8H333v-18h2.6V111.8z M330.4,111.8h-2.6v-18h2.6V111.8z M325.2,111.8h-2.6
			v-18h2.6V111.8z M320,111.8h-2.6v-18h2.6V111.8z M314.8,111.8h-2.6v-18h2.6V111.8z M309.6,111.8H307v-18h2.6V111.8z M304.4,111.8
			h-2.5v-18h2.5V111.8z"/>
		<path class="st1" d="M515.9,303.8h-18v-2.6h18V303.8z M515.9,298.6h-18V296h18V298.6z M515.9,293.4h-18v-2.6h18V293.4z
			 M515.9,288.2h-18v-2.6h18V288.2z M515.9,283h-18v-2.6h18V283z M515.9,277.8h-18v-2.6h18V277.8z M515.9,272.6h-18V270h18V272.6z
			 M515.9,267.4h-18v-2.6h18V267.4z M515.9,262.2h-18v-2.6h18V262.2z M515.9,257h-18v-2.6h18V257z M515.9,251.8h-18v-2.6h18V251.8z
			 M515.9,246.6h-18V244h18V246.6z M515.9,241.4h-18v-2.6h18V241.4z M515.9,236.2h-18v-2.6h18V236.2z M515.9,231h-18v-2.5h18V231z"
			/>
		<path class="st1" d="M380.5,442.1H378v-18h2.5V442.1z M375.4,442.1h-2.6v-18h2.6V442.1z M370.2,442.1h-2.6v-18h2.6V442.1z
			 M365,442.1h-2.6v-18h2.6V442.1z M359.8,442.1h-2.6v-18h2.6V442.1z M354.6,442.1H352v-18h2.6V442.1z M349.4,442.1h-2.6v-18h2.6
			V442.1z M344.2,442.1h-2.6v-18h2.6V442.1z M339,442.1h-2.6v-18h2.6V442.1z M333.8,442.1h-2.6v-18h2.6V442.1z M328.6,442.1H326v-18
			h2.6V442.1z M323.4,442.1h-2.6v-18h2.6V442.1z M318.2,442.1h-2.6v-18h2.6V442.1z M313,442.1h-2.6v-18h2.6V442.1z M307.8,442.1
			h-2.6v-18h2.6V442.1z"/>
		<rect x="61.6" y="45.4" class="st2" width="561.2" height="475.9"/>
		<rect x="61.6" y="45.4" class="st2" width="562.3" height="475.9"/>
		<line class="st3" x1="146" y1="268.1" x2="146" y2="221.1"/>
		<line class="st3" x1="341.6" y1="72.2" x2="388.6" y2="72.2"/>
		<line class="st3" x1="537.5" y1="267.8" x2="537.5" y2="314.8"/>
		<line class="st3" x1="341.9" y1="463.7" x2="294.9" y2="463.7"/>
	</g>
</g>
<g>
	<circle class="st4" cx="341.7" cy="268" r="49.8"/>
	<path class="st1" d="M341.7,318.3c-27.7,0-50.3-22.6-50.3-50.3c0-27.7,22.6-50.3,50.3-50.3s50.3,22.6,50.3,50.3
		C392.1,295.7,369.5,318.3,341.7,318.3z M341.7,218.6c-27.2,0-49.3,22.1-49.3,49.3s22.1,49.3,49.3,49.3c27.2,0,49.3-22.1,49.3-49.3
		S368.9,218.6,341.7,218.6z"/>
</g>
</svg>
